HIERARCHY
ROOT Hips
{
 OFFSET 0.000000 0.000000 0.000000
 CHANNELS 6 Xposition Yposition Zposition Yrotation Xrotation Zrotation
 JOINT Chest
 {
  OFFSET 0.000000 9.585900 0.002600
  CHANNELS 3 Yrotation Xrotation Zrotation
  JOINT Chest2
  {
   OFFSET 0.000000 9.601200 -0.005300
   CHANNELS 3 Yrotation Xrotation Zrotation
   JOINT Chest3
   {
    OFFSET 0.000000 9.561800 0.000000
    CHANNELS 3 Yrotation Xrotation Zrotation
    JOINT Chest4
    {
     OFFSET 0.000000 9.552100 0.000000
     CHANNELS 3 Yrotation Xrotation Zrotation
     JOINT Neck
     {
      OFFSET 0.000000 14.453000 0.000000
      CHANNELS 3 Yrotation Xrotation Zrotation
      JOINT Head
      {
       OFFSET 0.000000 8.936500 -0.011300
       CHANNELS 3 Yrotation Xrotation Zrotation
       End Site
       {
        OFFSET 0.000000 17.073600 -0.006000
       }
      }
     }
     JOINT RightCollar
     {
      OFFSET -2.921100 9.558500 0.000000
      CHANNELS 3 Yrotation Xrotation Zrotation
      JOINT RightShoulder
      {
       OFFSET -13.519700 0.000000 0.000000
       CHANNELS 3 Yrotation Xrotation Zrotation
       JOINT RightElbow
       {
        OFFSET 0.000000 -29.696600 0.000000
        CHANNELS 3 Yrotation Xrotation Zrotation
        JOINT RightWrist
        {
         OFFSET 0.000000 -24.004700 0.000000
         CHANNELS 3 Yrotation Xrotation Zrotation
         End Site
         {
          OFFSET 0.000000 -17.728500 0.000000
         }
        }
       }
      }
     }
     JOINT LeftCollar
     {
      OFFSET 2.921100 9.558500 0.000000
      CHANNELS 3 Yrotation Xrotation Zrotation
      JOINT LeftShoulder
      {
       OFFSET 13.519700 0.000000 0.000000
       CHANNELS 3 Yrotation Xrotation Zrotation
       JOINT LeftElbow
       {
        OFFSET 0.000000 -29.696600 0.000000
        CHANNELS 3 Yrotation Xrotation Zrotation
        JOINT LeftWrist
        {
         OFFSET 0.000000 -24.004700 0.000000
         CHANNELS 3 Yrotation Xrotation Zrotation
         End Site
         {
          OFFSET 0.000000 -17.728500 0.000000
         }
        }
       }
      }
     }
    }
   }
  }
 }
 JOINT RightHip
 {
  OFFSET -7.771700 -0.012900 -0.001300
  CHANNELS 3 Yrotation Xrotation Zrotation
  JOINT RightKnee
  {
   OFFSET 0.000000 -40.869800 0.001200
   CHANNELS 3 Yrotation Xrotation Zrotation
   JOINT RightAnkle
   {
    OFFSET 0.000000 -39.717900 0.002100
    CHANNELS 3 Yrotation Xrotation Zrotation
    JOINT RightToe
    {
     OFFSET 0.000000 -4.965400 11.033500
     CHANNELS 3 Yrotation Xrotation Zrotation
     End Site
     {
      OFFSET 0.000000 -1.423100 5.872300
     }
    }
   }
  }
 }
 JOINT LeftHip
 {
  OFFSET 7.771700 -0.012900 -0.001300
  CHANNELS 3 Yrotation Xrotation Zrotation
  JOINT LeftKnee
  {
   OFFSET 0.000000 -40.869800 0.001200
   CHANNELS 3 Yrotation Xrotation Zrotation
   JOINT LeftAnkle
   {
    OFFSET 0.000000 -39.717900 0.002100
    CHANNELS 3 Yrotation Xrotation Zrotation
    JOINT LeftToe
    {
     OFFSET 0.000000 -4.965400 11.033500
     CHANNELS 3 Yrotation Xrotation Zrotation
     End Site
     {
      OFFSET 0.000000 -1.423100 5.872300
     }
    }
   }
  }
 }
}
MOTION
Frames: 9
Frame Time: 0.008333
0.000000 85.388000 0.000000 0.000000 -5.767877 0.000000 0.000000 11.653817 0.000000 0.000000 -5.885947 0.000000 0.000000 -0.000000 0.000000 0.000000 -0.000000 0.000000 0.000000 12.528835 0.000000 0.000000 0.711642 0.000000 0.000000 -0.000000 0.000000 0.000000 0.000000 -90.000000 0.000000 -2.309062 0.000000 0.000000 2.309062 0.000000 0.000000 -0.000000 0.000000 0.000000 -0.000000 90.000000 0.000000 -2.309062 0.000000 0.000000 2.309062 0.000000 0.000000 8.520406 0.000000 0.000000 1.905762 0.000000 -0.000000 -4.658285 0.000000 0.000000 -0.000000 0.000000 0.000000 8.520406 0.000000 0.000000 1.905762 0.000000 -0.000000 -4.658285 0.000000 0.000000 -0.000000 0.000000
-14.137001 57.386872 67.922950 174.500677 -42.809224 -4.448437 1.860088 22.643067 6.193757 0.162004 3.447638 0.599486 0.307989 5.541698 0.961059 1.546555 19.432528 3.617710 -1.151619 23.395668 -2.194209 -1.589858 7.751541 -3.566211 10.924433 2.576850 -4.557425 33.640930 -50.261484 -22.833148 165.854675 -38.174900 -164.791114 14.773688 13.389969 -41.483431 -8.444340 -5.013940 -3.638524 -10.405332 -46.669489 -4.296904 -156.776219 -39.982441 160.360252 -19.912971 14.345987 7.849738 12.127807 -29.385671 -0.043344 -7.519969 64.643970 -5.072802 4.305591 10.877869 9.136794 -0.643393 0.706404 -0.277921 -9.169817 -35.536358 4.530458 27.066288 59.566545 29.760590 -10.174324 41.858157 -2.207691 0.994622 -20.744101 -7.143397
-14.125412 57.383523 67.926787 174.510036 -42.808975 -4.462888 1.889398 22.622000 6.202350 0.156761 3.449563 0.601353 0.314058 5.537492 0.959341 1.608777 19.402511 3.595234 -1.191807 23.422114 -2.130943 -1.569910 7.653479 -3.552240 10.848624 2.598381 -4.484065 33.795381 -50.257971 -22.916237 165.689026 -38.149819 -164.744479 14.803747 13.421115 -41.459339 -8.476583 -5.009104 -3.575438 -10.525396 -46.728729 -4.271453 -156.485196 -39.847404 160.278152 -19.991075 14.360113 7.838621 12.105910 -29.377826 -0.041367 -7.513297 64.636887 -5.047489 4.302723 10.841969 9.108397 -0.640299 0.713087 -0.277295 -9.222040 -35.540698 4.569715 27.081549 59.567370 29.782896 -10.271139 41.884210 -2.301818 1.004220 -20.743565 -7.128393
-14.114104 57.379390 67.931380 174.521784 -42.805752 -4.471389 1.909724 22.599786 6.203902 0.159179 3.448738 0.599092 0.320916 5.531950 0.956636 1.649745 19.386212 3.584795 -1.219949 23.437811 -2.084208 -1.556663 7.617633 -3.529260 10.802328 2.588443 -4.443349 33.857199 -50.239716 -22.928197 165.574646 -38.116480 -164.725233 14.805346 13.459349 -41.419652 -8.492341 -5.015380 -3.525076 -10.635036 -46.785068 -4.251288 -156.193881 -39.710473 160.192363 -20.062269 14.369676 7.828925 12.077534 -29.372193 -0.046071 -7.503611 64.631121 -5.025466 4.302641 10.806955 9.078555 -0.635262 0.733836 -0.274207 -9.267324 -35.546836 4.597988 27.091756 59.563625 29.800151 -10.343579 41.907578 -2.380946 1.013016 -20.748940 -7.116958
-14.103325 57.376090 67.935101 174.525321 -42.812427 -4.469284 1.935874 22.586407 6.201639 0.196900 3.426142 0.585884 0.325136 5.528644 0.955779 1.652260 19.399507 3.598263 -1.188697 23.399987 -2.077926 -1.577796 7.629571 -3.455126 10.785325 2.541702 -4.435145 33.780184 -50.207945 -22.841597 165.540860 -38.068331 -164.744508 14.843528 13.522978 -41.368024 -8.511208 -5.021478 -3.483984 -10.720514 -46.849145 -4.234601 -155.905079 -39.571922 160.102242 -20.124988 14.374159 7.817935 12.055786 -29.355122 -0.053565 -7.497805 64.624572 -5.010111 4.306513 10.769111 9.049915 -0.632094 0.756306 -0.270235 -9.299349 -35.542249 4.618471 27.108753 59.561521 29.817978 -10.394485 41.915270 -2.433764 1.009384 -20.742897 -7.110430
-14.090221 57.373283 67.939046 174.526037 -42.822396 -4.482705 1.956870 22.585998 6.217485 0.199185 3.425257 0.585180 0.318642 5.531870 0.958464 1.704429 19.382402 3.579483 -1.172567 23.380294 -2.057457 -1.582959 7.617888 -3.401259 10.734501 2.543808 -4.394860 33.901840 -50.201697 -22.905333 165.438265 -38.037883 -164.740412 14.913087 13.633514 -41.302237 -8.559455 -5.008340 -3.442648 -10.770263 -46.932418 -4.216034 -155.628780 -39.430356 160.014042 -20.190776 14.374366 7.801807 12.016015 -29.339734 -0.041817 -7.472546 64.617551 -4.976400 4.318277 10.745252 9.019957 -0.635219 0.749595 -0.271645 -9.338526 -35.528858 4.654749 27.126256 59.556997 29.866821 -10.539762 41.893777 -2.594935 1.013783 -20.691624 -7.062107
-14.083605 57.369209 67.943316 174.529305 -42.822857 -4.466608 1.962625 22.578309 6.199216 0.201362 3.424516 0.584483 0.342603 5.521525 0.949915 1.701005 19.388911 3.587939 -1.169348 23.374318 -2.044795 -1.558547 7.579478 -3.379416 10.723389 2.515357 -4.396310 33.953990 -50.185255 -22.899408 165.348465 -38.001425 -164.732229 14.958606 13.707759 -41.248482 -8.540521 -5.039113 -3.422627 -10.833379 -46.978349 -4.217002 -155.369265 -39.282533 159.931469 -20.262894 14.376350 7.785415 12.019494 -29.333470 -0.069852 -7.480679 64.617537 -4.975836 4.322138 10.731356 9.007655 -0.634623 0.730396 -0.271895 -9.353579 -35.526179 4.654296 27.121898 59.563956 29.870134 -10.592252 41.831272 -2.654272 1.025293 -20.625626 -7.056043
-14.097972 57.354259 67.955325 174.381549 -42.743814 -4.236907 2.039727 22.479362 6.060752 0.206377 3.422667 0.582860 0.370260 5.511000 0.939523 1.681474 19.401906 3.605066 -1.165781 23.368186 -2.032467 -1.535166 7.542082 -3.358580 10.715614 2.465457 -4.407491 33.949760 -50.155135 -22.841368 165.278425 -37.958964 -164.727119 15.006618 13.773378 -41.200696 -8.493292 -5.108116 -3.406553 -10.912004 -46.978437 -4.229251 -155.129450 -39.132861 159.858872 -20.339431 14.382649 7.772848 12.194426 -29.559558 -0.235158 -7.534953 64.823301 -5.001195 4.106404 11.007918 8.807692 -0.383587 0.393556 -0.158742 -9.188345 -35.627318 4.529150 27.118676 59.566444 29.865909 -10.662733 41.764163 -2.724539 0.978651 -20.513858 -7.005881
-14.096916 57.351301 67.957672 174.367881 -42.752850 -4.195230 2.083621 22.459900 6.028239 0.194637 3.432365 0.588049 0.358090 5.517258 0.944536 1.724347 19.391749 3.588954 -1.129294 23.336080 -2.024528 -1.571261 7.566496 -3.288473 10.670521 2.452523 -4.370803 34.028825 -50.141389 -22.843426 165.176148 -37.916537 -164.692636 15.046240 13.827624 -41.156961 -8.535757 -5.106466 -3.363683 -10.948116 -47.036615 -4.218907 -154.905386 -38.988163 159.795921 -20.414877 14.389380 7.767252 12.240074 -29.526168 -0.306365 -7.494608 64.820352 -4.914390 4.081258 10.914972 8.766861 -0.374922 0.469872 -0.148138 -9.163657 -35.619449 4.496420 27.112461 59.571796 29.865299 -10.660760 41.711802 -2.725305 0.931636 -20.441189 -6.997558
